<svg width="21" height="21" viewBox="0 0 21 21" fill="none" xmlns="http://www.w3.org/2000/svg">
<g clip-path="url(#clip0_483_4031)">
<g clip-path="url(#clip1_483_4031)">
<path d="M17.0053 4.15613H4.27716C3.81684 4.15613 3.37536 4.33899 3.04987 4.66449C2.72437 4.98999 2.5415 5.43146 2.5415 5.89178V6.24123L10.6412 11.0062L18.7409 6.23891V5.89178C18.7409 5.43146 18.5581 4.98999 18.2326 4.66449C17.9071 4.33899 17.4656 4.15613 17.0053 4.15613Z" fill="white"/>
<path d="M18.7409 7.58215L10.9352 12.1759C10.8613 12.2192 10.7788 12.2456 10.6936 12.2532C10.6083 12.2609 10.5225 12.2494 10.4422 12.2198L10.3473 12.1759L2.5415 7.58449V15.1485C2.5415 15.6088 2.72437 16.0503 3.04987 16.3757C3.37536 16.7013 3.81684 16.8841 4.27716 16.8841H17.0053C17.4656 16.8841 17.9071 16.7013 18.2326 16.3757C18.5581 16.0503 18.7409 15.6088 18.7409 15.1485V7.58215Z" fill="white"/>
</g>
</g>
<defs>
<clipPath id="clip0_483_4031">
<rect width="20.1967" height="20.1967" fill="white" transform="translate(0.541016 0.474426)"/>
</clipPath>
<clipPath id="clip1_483_4031">
<rect width="20.1967" height="20.1967" fill="white" transform="translate(0.541016 0.474426)"/>
</clipPath>
</defs>
</svg>
