<svg width="16" height="15" viewBox="0 0 16 15" fill="none" xmlns="http://www.w3.org/2000/svg">
<g clip-path="url(#clip0_483_4023)">
<g clip-path="url(#clip1_483_4023)">
<g clip-path="url(#clip2_483_4023)">
<path d="M3.65196 1.98351C3.65196 2.90873 2.94757 3.65039 1.81509 3.65039H1.79399C0.703711 3.65106 0 2.90806 0 1.98351C0 1.0361 0.726173 0.314606 1.83619 0.314606C2.94757 0.313934 3.63155 1.0361 3.65196 1.98351ZM0.19056 14.6199H3.43826V4.96897H0.19056V14.6199ZM11.4091 4.74304C9.6866 4.74304 8.91553 5.67768 8.48199 6.33663V6.36756H8.46091C8.46905 6.35815 8.47656 6.34739 8.48199 6.33663V4.96964H5.23498C5.27717 5.87402 5.23498 14.6206 5.23498 14.6206H8.48199V9.23064C8.48199 8.94018 8.50175 8.65573 8.58885 8.44795C8.82433 7.87373 9.35929 7.27326 10.2536 7.27326C11.4303 7.27326 11.9005 8.16021 11.9005 9.45659V14.6206H15.1475V9.08743C15.1482 6.12079 13.5448 4.74304 11.4091 4.74304Z" fill="white"/>
</g>
</g>
</g>
<defs>
<clipPath id="clip0_483_4023">
<rect width="15.1475" height="14.5164" fill="white" transform="translate(0 0.314606)"/>
</clipPath>
<clipPath id="clip1_483_4023">
<rect width="15.1475" height="14.5164" fill="white" transform="translate(0 0.314606)"/>
</clipPath>
<clipPath id="clip2_483_4023">
<rect width="15.1475" height="14.5164" fill="white" transform="translate(0 0.314606)"/>
</clipPath>
</defs>
</svg>
