<svg width="384" height="508" viewBox="0 0 384 508" fill="none" xmlns="http://www.w3.org/2000/svg">
<path d="M130.437 0.000213623C197.686 0.000213623 262.181 26.7149 309.733 74.2672C357.285 121.82 384 186.315 384 253.564C384 320.813 357.285 385.308 309.733 432.86C262.181 480.413 197.686 507.127 130.437 507.127L130.437 253.564L130.437 0.000213623Z" fill="#FFCDA8"/>
<path d="M-122.495 5.05823C-56.5875 5.05823 6.62076 31.2399 53.2245 77.8436C99.8282 124.447 126.01 187.656 126.01 253.563C126.01 319.471 99.8282 382.679 53.2245 429.283C6.62079 475.886 -56.5874 502.068 -122.495 502.068L-122.495 253.563L-122.495 5.05823Z" fill="#F46036"/>
</svg>
