<svg width="21" height="21" viewBox="0 0 21 21" fill="none" xmlns="http://www.w3.org/2000/svg">
<path d="M17.0048 4.15625H4.27667C3.81635 4.15625 3.37488 4.33911 3.04938 4.66461C2.72388 4.99011 2.54102 5.43158 2.54102 5.89191V6.24135L10.6407 11.0063L18.7404 6.23904V5.89191C18.7404 5.43158 18.5576 4.99011 18.2321 4.66461C17.9066 4.33911 17.4651 4.15625 17.0048 4.15625Z" fill="white"/>
<path d="M18.7404 7.58228L10.9347 12.176C10.8608 12.2193 10.7783 12.2458 10.6931 12.2533C10.6079 12.261 10.522 12.2495 10.4417 12.2199L10.3468 12.176L2.54102 7.58461V15.1486C2.54102 15.6089 2.72388 16.0504 3.04938 16.3759C3.37488 16.7014 3.81635 16.8843 4.27667 16.8843H17.0048C17.4651 16.8843 17.9066 16.7014 18.2321 16.3759C18.5576 16.0504 18.7404 15.6089 18.7404 15.1486V7.58228Z" fill="white"/>
</svg>
