<svg width="16" height="15" viewBox="0 0 16 15" fill="none" xmlns="http://www.w3.org/2000/svg">
<g clip-path="url(#clip0_441_661)">
<path d="M3.65196 1.9836C3.65196 2.90882 2.94757 3.65048 1.81509 3.65048H1.79399C0.703711 3.65115 0 2.90815 0 1.9836C0 1.03619 0.726173 0.314698 1.83619 0.314698C2.94757 0.314025 3.63155 1.03619 3.65196 1.9836ZM0.19056 14.62H3.43826V4.96906H0.19056V14.62ZM11.4091 4.74313C9.6866 4.74313 8.91553 5.67777 8.48199 6.33672V6.36765H8.46091C8.46905 6.35824 8.47656 6.34748 8.48199 6.33672V4.96973H5.23498C5.27717 5.87411 5.23498 14.6207 5.23498 14.6207H8.48199V9.23073C8.48199 8.94028 8.50175 8.65582 8.58885 8.44804C8.82433 7.87383 9.35929 7.27335 10.2536 7.27335C11.4303 7.27335 11.9005 8.1603 11.9005 9.45668V14.6207H15.1475V9.08752C15.1482 6.12088 13.5448 4.74313 11.4091 4.74313Z" fill="white"/>
</g>
<defs>
<clipPath id="clip0_441_661">
<rect width="15.1475" height="14.5164" fill="white" transform="translate(0 0.314697)"/>
</clipPath>
</defs>
</svg>
