<svg width="22" height="21" viewBox="0 0 22 21" fill="none" xmlns="http://www.w3.org/2000/svg">
<path d="M19.633 5.17762C18.9929 5.46176 18.3051 5.65312 17.5831 5.73938C18.3203 5.29794 18.8864 4.59845 19.1524 3.76486C18.4631 4.17368 17.6991 4.47087 16.8858 4.63107C16.2356 3.93738 15.307 3.50391 14.2806 3.50391C11.9763 3.50391 10.283 5.65385 10.8035 7.88571C7.83805 7.73708 5.20826 6.31638 3.44757 4.15701C2.5125 5.76113 2.96264 7.85958 4.55154 8.92225C3.9673 8.90337 3.4164 8.74319 2.93582 8.47571C2.89668 10.1291 4.08183 11.676 5.7983 12.0203C5.29597 12.1566 4.7458 12.1885 4.18621 12.0812C4.63997 13.499 5.95777 14.5305 7.52058 14.5595C6.02011 15.7359 4.12967 16.2615 2.23633 16.0382C3.8158 17.0509 5.69247 17.6416 7.70759 17.6416C14.3343 17.6416 18.0782 12.045 17.852 7.02527C18.5493 6.52151 19.1546 5.89305 19.633 5.17762Z" fill="white"/>
</svg>
