<svg width="21" height="21" viewBox="0 0 21 21" fill="none" xmlns="http://www.w3.org/2000/svg">
<path d="M10.342 7.94334C8.89431 7.94334 7.71287 9.12479 7.71287 10.5725C7.71287 12.0202 8.89431 13.2016 10.342 13.2016C11.7897 13.2016 12.9711 12.0202 12.9711 10.5725C12.9711 9.12479 11.7897 7.94334 10.342 7.94334ZM18.2274 10.5725C18.2274 9.48378 18.2373 8.4049 18.1762 7.31813C18.115 6.05584 17.827 4.93555 16.904 4.0125C15.9789 3.08747 14.8606 2.80149 13.5983 2.74034C12.5096 2.6792 11.4308 2.68906 10.344 2.68906C9.25527 2.68906 8.17638 2.6792 7.08961 2.74034C5.82733 2.80149 4.70704 3.08945 3.78399 4.0125C2.85896 4.93753 2.57297 6.05584 2.51183 7.31813C2.45069 8.40686 2.46055 9.48574 2.46055 10.5725C2.46055 11.6592 2.45069 12.7401 2.51183 13.8268C2.57297 15.0891 2.86093 16.2094 3.78399 17.1325C4.70902 18.0575 5.82733 18.3435 7.08961 18.4046C8.17834 18.4658 9.25722 18.4559 10.344 18.4559C11.4327 18.4559 12.5116 18.4658 13.5983 18.4046C14.8606 18.3435 15.9809 18.0555 16.904 17.1325C17.829 16.2075 18.115 15.0891 18.1762 13.8268C18.2393 12.7401 18.2274 11.6612 18.2274 10.5725ZM10.342 14.6177C8.10342 14.6177 6.29674 12.8111 6.29674 10.5725C6.29674 8.33389 8.10342 6.52723 10.342 6.52723C12.5806 6.52723 14.3873 8.33389 14.3873 10.5725C14.3873 12.8111 12.5806 14.6177 10.342 14.6177ZM14.5529 7.30632C14.0303 7.30632 13.6082 6.88421 13.6082 6.36155C13.6082 5.83888 14.0303 5.4168 14.5529 5.4168C15.0756 5.4168 15.4977 5.83888 15.4977 6.36155C15.4979 6.48566 15.4735 6.60858 15.4261 6.72328C15.3787 6.83795 15.3091 6.94215 15.2213 7.02994C15.1336 7.11767 15.0294 7.18729 14.9147 7.23469C14.8 7.28215 14.6771 7.30645 14.5529 7.30632Z" fill="white"/>
</svg>
