<svg width="21" height="21" viewBox="0 0 21 21" fill="none" xmlns="http://www.w3.org/2000/svg">
<g clip-path="url(#clip0_483_4027)">
<g clip-path="url(#clip1_483_4027)">
<path d="M10.342 7.94316C8.89431 7.94316 7.71287 9.1246 7.71287 10.5723C7.71287 12.02 8.89431 13.2014 10.342 13.2014C11.7897 13.2014 12.9711 12.02 12.9711 10.5723C12.9711 9.1246 11.7897 7.94316 10.342 7.94316ZM18.2274 10.5723C18.2274 9.4836 18.2373 8.40472 18.1762 7.31794C18.115 6.05565 17.827 4.93537 16.904 4.01232C15.9789 3.08729 14.8606 2.80131 13.5983 2.74016C12.5096 2.67902 11.4308 2.68888 10.344 2.68888C9.25527 2.68888 8.17638 2.67902 7.08961 2.74016C5.82733 2.80131 4.70704 3.08927 3.78399 4.01232C2.85896 4.93734 2.57297 6.05565 2.51183 7.31794C2.45069 8.40667 2.46055 9.48556 2.46055 10.5723C2.46055 11.659 2.45069 12.7399 2.51183 13.8267C2.57297 15.0889 2.86093 16.2092 3.78399 17.1323C4.70902 18.0573 5.82733 18.3433 7.08961 18.4044C8.17834 18.4656 9.25722 18.4557 10.344 18.4557C11.4327 18.4557 12.5116 18.4656 13.5983 18.4044C14.8606 18.3433 15.9809 18.0553 16.904 17.1323C17.829 16.2073 18.115 15.0889 18.1762 13.8267C18.2393 12.7399 18.2274 11.6611 18.2274 10.5723ZM10.342 14.6175C8.10342 14.6175 6.29674 12.8109 6.29674 10.5723C6.29674 8.33371 8.10342 6.52705 10.342 6.52705C12.5806 6.52705 14.3873 8.33371 14.3873 10.5723C14.3873 12.8109 12.5806 14.6175 10.342 14.6175ZM14.5529 7.30614C14.0303 7.30614 13.6082 6.88403 13.6082 6.36137C13.6082 5.8387 14.0303 5.41662 14.5529 5.41662C15.0756 5.41662 15.4977 5.8387 15.4977 6.36137C15.4979 6.48548 15.4735 6.6084 15.4261 6.72309C15.3787 6.83777 15.3091 6.94197 15.2213 7.02976C15.1336 7.11749 15.0294 7.18711 14.9147 7.23451C14.8 7.28197 14.6771 7.30627 14.5529 7.30614Z" fill="white"/>
</g>
</g>
<defs>
<clipPath id="clip0_483_4027">
<rect width="20.1967" height="20.1967" fill="white" transform="translate(0.246094 0.474426)"/>
</clipPath>
<clipPath id="clip1_483_4027">
<rect width="20.1967" height="20.1967" fill="white" transform="translate(0.246094 0.474426)"/>
</clipPath>
</defs>
</svg>
