<svg width="215" height="30" viewBox="0 0 215 30" fill="none" xmlns="http://www.w3.org/2000/svg">
<path d="M84.764 14.7069V10.7098C84.7644 10.6817 84.7582 10.6539 84.746 10.6286C83.5038 8.16838 81.2692 7.01947 78.6526 7.01947C77.2435 6.98589 75.8563 7.37221 74.6675 8.12928C74.6434 8.14556 74.6236 8.1675 74.61 8.1932C74.5963 8.2189 74.5892 8.24756 74.5893 8.27665V11.2843C74.5902 11.3151 74.5992 11.3452 74.6153 11.3715C74.6314 11.3978 74.654 11.4195 74.6811 11.4343C74.7081 11.4492 74.7385 11.4568 74.7694 11.4563C74.8002 11.4559 74.8304 11.4473 74.857 11.4316C75.5792 11.0339 76.3936 10.8337 77.2179 10.8512C79.8887 10.8512 81.4767 12.6888 81.4767 15.898V27.1284C81.4767 27.1509 81.4811 27.1732 81.4898 27.194C81.4984 27.2148 81.511 27.2337 81.5269 27.2496C81.5428 27.2655 81.5617 27.2781 81.5825 27.2868C81.6033 27.2954 81.6256 27.2998 81.6481 27.2998H85.6002C85.6459 27.2998 85.6898 27.2818 85.7225 27.2498C85.7551 27.2177 85.7738 27.1741 85.7746 27.1284V15.8949C85.7741 15.6156 85.7891 15.3365 85.8197 15.0588C85.8222 15.0348 85.8197 15.0106 85.8122 14.9877C85.8048 14.9647 85.7925 14.9436 85.7763 14.9258C85.7602 14.9079 85.7404 14.8936 85.7183 14.8839C85.6963 14.8742 85.6724 14.8692 85.6483 14.8694H84.9475C84.9247 14.871 84.9019 14.868 84.8803 14.8607C84.8586 14.8534 84.8387 14.8418 84.8216 14.8267C84.8045 14.8116 84.7906 14.7932 84.7807 14.7726C84.7709 14.7521 84.7652 14.7297 84.764 14.7069ZM91.5011 7.03152C89.8065 6.98801 88.1425 7.48754 86.7521 8.45712C86.7297 8.47393 86.7115 8.49573 86.6989 8.52078C86.6864 8.54584 86.6799 8.57347 86.6799 8.60148V12.0903C86.6801 12.1251 86.691 12.159 86.711 12.1875C86.731 12.216 86.7592 12.2378 86.7918 12.2498C86.8245 12.2619 86.86 12.2638 86.8938 12.2552C86.9275 12.2465 86.9578 12.2278 86.9806 12.2016C87.7596 11.3264 88.8905 10.8572 90.289 10.8572C92.9598 10.8572 94.5448 12.6948 94.5448 15.904V27.1344C94.5456 27.1801 94.5643 27.2237 94.5969 27.2558C94.6296 27.2879 94.6735 27.3058 94.7192 27.3058H98.6652C98.711 27.3058 98.7549 27.2879 98.7875 27.2558C98.8201 27.2237 98.8389 27.1801 98.8397 27.1344V15.6754C98.8156 9.6722 95.7208 7.03152 91.5011 7.03152ZM72.6885 22.8846V7.58792C72.6885 7.56515 72.6839 7.54261 72.6751 7.52161C72.6663 7.50061 72.6534 7.48158 72.6372 7.46562C72.621 7.44966 72.6017 7.43709 72.5806 7.42865C72.5594 7.42021 72.5368 7.41608 72.514 7.41648H68.6041C68.5814 7.41608 68.5588 7.42021 68.5376 7.42865C68.5165 7.43709 68.4972 7.44966 68.481 7.46562C68.4647 7.48158 68.4518 7.50061 68.443 7.52161C68.4342 7.54261 68.4297 7.56515 68.4297 7.58792V27.1374C68.4305 27.1831 68.4492 27.2267 68.4818 27.2588C68.5145 27.2909 68.5584 27.3088 68.6041 27.3088H72.514C72.5598 27.3088 72.6037 27.2909 72.6363 27.2588C72.669 27.2267 72.6877 27.1831 72.6885 27.1374V22.8846Z" fill="#F5F5F5"/>
<path d="M119.586 7.41634C119.537 7.41594 119.488 7.4252 119.443 7.44358C119.397 7.46196 119.356 7.48908 119.321 7.52343C119.286 7.55778 119.258 7.59868 119.239 7.64378C119.22 7.68888 119.21 7.73729 119.21 7.78627V10.5924H119.095C118.362 9.01939 115.808 7.03137 112.13 7.03137C107.369 7.03137 102.373 10.5112 102.373 17.3595C102.373 24.2078 107.369 27.6877 112.13 27.6877C113.912 27.7098 115.661 27.1999 117.152 26.2229C117.201 26.1894 117.241 26.1445 117.269 26.0922C117.297 26.0398 117.312 25.9815 117.312 25.9222V23.0228C117.312 22.953 117.292 22.8846 117.256 22.8252C117.219 22.7658 117.166 22.7178 117.104 22.6866C117.042 22.6554 116.972 22.6421 116.902 22.6484C116.833 22.6547 116.766 22.6802 116.71 22.7221C115.597 23.4732 114.282 23.8686 112.939 23.8559C109.724 23.8559 106.59 21.6363 106.59 17.3535C106.59 13.0706 109.724 10.851 112.939 10.851C114.007 10.825 115.065 11.0714 116.012 11.5671C116.959 12.0628 117.765 12.7913 118.352 13.6842C118.791 14.396 119.087 15.1868 119.222 16.0121C119.368 16.8923 119.368 17.7906 119.222 18.6708C119.22 18.6888 119.22 18.7069 119.222 18.725V26.9297C119.222 27.0281 119.262 27.1222 119.332 27.1915C119.402 27.2608 119.496 27.2997 119.595 27.2997H123.098C123.147 27.3001 123.196 27.2908 123.241 27.2724C123.287 27.2541 123.328 27.2269 123.363 27.1926C123.398 27.1582 123.426 27.1173 123.445 27.0722C123.464 27.0271 123.474 26.9787 123.474 26.9297V7.77424C123.474 7.72527 123.464 7.67685 123.445 7.63176C123.426 7.58666 123.398 7.54576 123.363 7.51141C123.328 7.47706 123.287 7.44991 123.241 7.43154C123.196 7.41316 123.147 7.40392 123.098 7.40431L119.586 7.41634Z" fill="#F5F5F5"/>
<path d="M138.679 7.03135C137.865 7.00493 137.055 7.14495 136.297 7.44284C135.54 7.74073 134.851 8.1902 134.273 8.76372C134.247 8.78984 134.226 8.82082 134.212 8.85488C134.199 8.88894 134.191 8.92543 134.192 8.96223V12.2285C134.192 12.2815 134.207 12.3335 134.235 12.3782C134.264 12.4229 134.304 12.4584 134.353 12.4806C134.401 12.5028 134.454 12.5106 134.507 12.5033C134.559 12.4959 134.609 12.4736 134.649 12.439C135.804 11.5284 137.241 11.0498 138.712 11.0856C139.019 11.0839 139.326 11.105 139.629 11.1488C139.669 11.1548 139.709 11.1523 139.748 11.1413C139.786 11.1304 139.821 11.1112 139.852 11.0852C139.882 11.0592 139.906 11.027 139.923 10.9907C139.94 10.9544 139.948 10.915 139.948 10.8751V7.40429C139.949 7.34152 139.928 7.28037 139.889 7.23109C139.851 7.18181 139.796 7.14739 139.735 7.1336C139.388 7.06091 139.034 7.02663 138.679 7.03135ZM132.294 12.5413V7.69301C132.293 7.61935 132.263 7.54898 132.211 7.49718C132.159 7.44537 132.088 7.41631 132.014 7.41631H128.318C128.281 7.41592 128.245 7.42278 128.211 7.43651C128.177 7.45023 128.146 7.47056 128.12 7.49629C128.094 7.52203 128.074 7.55266 128.059 7.58643C128.045 7.6202 128.038 7.65642 128.038 7.69301V27.0229C128.038 27.0595 128.045 27.0958 128.059 27.1295C128.074 27.1633 128.094 27.1939 128.12 27.2197C128.146 27.2454 128.177 27.2657 128.211 27.2794C128.245 27.2932 128.281 27.3 128.318 27.2996H132.014C132.088 27.2996 132.159 27.2706 132.211 27.2188C132.263 27.167 132.293 27.0966 132.294 27.0229V18.0001C132.294 17.9339 132.294 17.8678 132.294 17.8076V12.5142V12.5413Z" fill="#F5F5F5"/>
<path d="M143.518 7.41637V27.3057H147.773V7.41637H143.518ZM143.518 0.146973V3.93356H147.773V0.146973H143.518Z" fill="#F5F5F5"/>
<path d="M158.456 7.05242V2.68838C158.454 2.59131 158.415 2.49876 158.346 2.43068C158.276 2.3626 158.183 2.32445 158.086 2.32446H154.528C154.431 2.32446 154.338 2.36271 154.27 2.43087C154.201 2.49903 154.162 2.59159 154.161 2.68838V7.05242C154.16 7.14949 154.12 7.24205 154.051 7.31013C153.982 7.37822 153.888 7.41636 153.791 7.41635H151.74C151.692 7.41595 151.644 7.42506 151.599 7.44313C151.555 7.46121 151.514 7.48789 151.48 7.52168C151.445 7.55547 151.418 7.59572 151.399 7.64008C151.38 7.68445 151.371 7.73209 151.37 7.78028V10.457C151.371 10.5052 151.38 10.5529 151.399 10.5972C151.418 10.6416 151.445 10.6818 151.48 10.7156C151.514 10.7494 151.555 10.7761 151.599 10.7942C151.644 10.8123 151.692 10.8214 151.74 10.821H152.597H160.089H162.149C162.198 10.8214 162.245 10.8123 162.29 10.7942C162.335 10.7761 162.375 10.7494 162.41 10.7156C162.444 10.6818 162.471 10.6416 162.49 10.5972C162.509 10.5529 162.519 10.5052 162.519 10.457V7.77426C162.519 7.72607 162.509 7.67843 162.49 7.63406C162.471 7.5897 162.444 7.54947 162.41 7.51568C162.375 7.48188 162.335 7.45518 162.29 7.43711C162.245 7.41904 162.198 7.40993 162.149 7.41033H158.823C158.727 7.41036 158.635 7.37295 158.567 7.30608C158.498 7.2392 158.458 7.14816 158.456 7.05242ZM160.661 23.7477C159.073 23.7477 158.456 22.8695 158.456 21.7206V13.0586C158.456 13.0104 158.446 12.9628 158.427 12.9184C158.408 12.8741 158.381 12.8338 158.346 12.8001C158.312 12.7663 158.271 12.7396 158.227 12.7215C158.182 12.7034 158.134 12.6943 158.086 12.6947H154.528C154.48 12.6943 154.432 12.7034 154.388 12.7215C154.343 12.7397 154.303 12.7664 154.269 12.8002C154.235 12.8341 154.208 12.8743 154.189 12.9187C154.171 12.963 154.161 13.0106 154.161 13.0586V22.4875C154.161 26.0425 156.327 27.5343 159.385 27.5343C160.399 27.5343 161.617 27.3659 162.372 26.8425C162.42 26.8086 162.458 26.7633 162.484 26.7108C162.509 26.6583 162.522 26.6002 162.519 26.5418V23.8921C162.518 23.8356 162.504 23.7802 162.478 23.7301C162.452 23.6799 162.416 23.6363 162.37 23.6027C162.325 23.569 162.273 23.5461 162.217 23.5358C162.162 23.5255 162.105 23.528 162.05 23.5432C161.598 23.6716 161.131 23.7403 160.661 23.7477Z" fill="#F5F5F5"/>
<path d="M171.338 18.9656H184.8C184.844 18.9658 184.885 18.9499 184.918 18.921C184.95 18.8921 184.97 18.8522 184.975 18.8092C185.856 10.5834 180.319 7.03137 175.245 7.03137C170.171 7.03137 165.146 10.6676 165.146 17.3595C165.146 23.9763 170.096 27.6877 175.552 27.6877C178.896 27.6877 181.754 26.3643 183.504 24.289C183.532 24.2576 183.548 24.2169 183.548 24.1748C183.548 24.1326 183.532 24.0919 183.504 24.0605L181.717 22.2108C181.686 22.1794 181.643 22.1618 181.599 22.1618C181.554 22.1618 181.511 22.1794 181.48 22.2108C179.97 23.5207 178.025 24.2181 176.027 24.1657C172.719 24.1657 170.075 22.5507 169.275 19.3987C169.272 19.3859 169.272 19.3724 169.275 19.3596C169.242 19.2302 169.215 19.0949 169.188 18.9596H169.206C169.007 17.9255 168.994 16.8643 169.167 15.8256H169.149C169.768 12.3067 172.475 10.6224 175.302 10.6224C178.129 10.6224 180.851 12.3157 181.17 15.6361C181.172 15.6602 181.168 15.6843 181.16 15.707C181.152 15.7298 181.14 15.7506 181.124 15.7684C181.107 15.7861 181.087 15.8003 181.065 15.8102C181.043 15.82 181.02 15.8253 180.996 15.8256H171.338C171.316 15.8252 171.294 15.8293 171.273 15.8376C171.252 15.8458 171.233 15.8582 171.217 15.8739C171.201 15.8896 171.188 15.9083 171.18 15.9289C171.171 15.9495 171.167 15.9717 171.167 15.9941V18.7881C171.166 18.8111 171.17 18.8341 171.178 18.8556C171.186 18.8771 171.199 18.8967 171.215 18.9133C171.231 18.9298 171.25 18.943 171.271 18.952C171.292 18.961 171.315 18.9656 171.338 18.9656Z" fill="#F5F5F5"/>
<path d="M196.307 15.8677L194.331 15.1038C192.527 14.4542 191.859 13.5729 191.859 12.5413C191.859 11.239 192.939 10.3999 194.488 10.3999C195.817 10.3999 196.894 11.0255 197.495 12.4812C197.518 12.5395 197.56 12.5876 197.616 12.6164C197.671 12.6452 197.735 12.6527 197.796 12.6375L200.695 11.8796C200.762 11.862 200.819 11.8185 200.854 11.7587C200.889 11.699 200.899 11.6278 200.882 11.5608C200.1 8.79985 197.63 7.03137 194.286 7.03137C190.647 7.03137 187.669 9.13669 187.669 12.5052C187.669 14.8361 189.062 16.8602 192.391 18.1264L194.56 18.9265C196.497 19.6934 197.345 20.4573 197.345 21.7205C197.345 23.48 195.799 24.283 194.211 24.283C192.223 24.283 190.969 23.08 190.484 21.504C190.466 21.4418 190.425 21.3889 190.369 21.3559C190.313 21.323 190.247 21.3125 190.184 21.3265L187.176 22.1536C187.113 22.1707 187.058 22.2114 187.024 22.2674C186.99 22.3234 186.979 22.3903 186.993 22.4544C187.693 25.8259 190.478 27.6877 194.262 27.6877C198.208 27.6877 201.616 25.6996 201.616 21.7205C201.61 18.3159 199.092 16.9023 196.307 15.8677Z" fill="#F5F5F5"/>
<path d="M210.937 21.7206V13.0767C210.936 12.9751 210.895 12.878 210.823 12.8064C210.751 12.7349 210.653 12.6947 210.552 12.6947H207.027C206.977 12.6943 206.927 12.7039 206.88 12.7229C206.833 12.7419 206.791 12.77 206.755 12.8055C206.719 12.841 206.691 12.8833 206.671 12.9298C206.652 12.9764 206.642 13.0263 206.642 13.0767V22.4875C206.642 26.0425 208.807 27.5343 211.866 27.5343C212.88 27.5343 214.092 27.3689 214.847 26.8485C214.894 26.814 214.933 26.7688 214.959 26.7165C214.986 26.6643 215 26.6064 215 26.5478V23.9282C214.999 23.8695 214.985 23.8119 214.958 23.7596C214.931 23.7074 214.893 23.662 214.846 23.6269C214.799 23.5918 214.744 23.5679 214.687 23.557C214.629 23.5462 214.569 23.5486 214.513 23.5642C214.067 23.6864 213.607 23.7501 213.144 23.7537C211.568 23.7477 210.937 22.8695 210.937 21.7206ZM210.937 7.03439V2.70644C210.936 2.60486 210.895 2.50772 210.823 2.43617C210.751 2.36462 210.653 2.32447 210.552 2.32447H207.027C206.977 2.32408 206.927 2.33366 206.88 2.35268C206.833 2.3717 206.791 2.39977 206.755 2.43528C206.719 2.47079 206.691 2.51303 206.671 2.55957C206.652 2.60611 206.642 2.65602 206.642 2.70644V7.03439C206.641 7.13597 206.6 7.23313 206.528 7.30468C206.456 7.37622 206.359 7.41636 206.257 7.41636H204.242C204.192 7.41596 204.142 7.42545 204.096 7.44428C204.049 7.46311 204.007 7.49091 203.971 7.5261C203.935 7.56129 203.907 7.60317 203.887 7.64937C203.868 7.69556 203.857 7.74516 203.857 7.79532V10.439C203.857 10.4894 203.867 10.5393 203.886 10.5859C203.906 10.6324 203.934 10.6747 203.97 10.7102C204.006 10.7457 204.048 10.7737 204.095 10.7928C204.142 10.8118 204.192 10.8214 204.242 10.821H205.713H213.196H214.615C214.666 10.8214 214.716 10.8118 214.762 10.7928C214.809 10.7737 214.851 10.7457 214.887 10.7102C214.923 10.6747 214.951 10.6324 214.971 10.5859C214.99 10.5393 215 10.4894 215 10.439V7.79532C215 7.74516 214.989 7.69556 214.97 7.64937C214.95 7.60317 214.922 7.56129 214.886 7.5261C214.85 7.49091 214.808 7.46311 214.762 7.44428C214.715 7.42545 214.665 7.41596 214.615 7.41636H211.307C211.208 7.41323 211.114 7.37162 211.044 7.30033C210.975 7.22903 210.937 7.13364 210.937 7.03439Z" fill="#F5F5F5"/>
<path d="M119.216 13.6902V16.0181C119.081 15.1928 118.786 14.4019 118.347 13.6902H119.216Z" fill="#F5F5F5"/>
<path d="M84.7627 10.6677C84.7627 10.6677 85.9056 12.1926 85.8394 14.8784C85.7732 17.5642 84.3867 15.0618 84.3867 15.0618L84.7627 10.6677Z" fill="#F5F5F5"/>
<path d="M169.275 19.4058C169.272 19.3926 169.272 19.3788 169.275 19.3656C169.272 19.3788 169.272 19.3926 169.275 19.4058Z" fill="#F5F5F5"/>
<path d="M54.1194 22.6348C54.1194 26.6139 51.0305 29.8531 47.2229 29.8531C45.4702 29.8458 43.7898 29.154 42.54 27.9252L42.1912 27.5613L37.1685 22.3251L31.9442 27.7388C31.5637 28.1379 31.1377 28.4912 30.675 28.7914C29.6056 29.4784 28.361 29.8428 27.0899 29.8411C23.2793 29.8411 20.1905 26.6169 20.1905 22.6228C20.184 20.8123 20.8446 19.0628 22.0462 17.7084L22.3951 17.3475L27.4057 12.1262L35.6225 3.56357C35.8121 3.36475 36.0401 3.20649 36.2926 3.09835C36.5452 2.99021 36.817 2.93445 37.0918 2.93445C37.3665 2.93445 37.6383 2.99021 37.8909 3.09835C38.1434 3.20649 38.3714 3.36475 38.561 3.56357L46.8921 12.2165L52.6486 18.1926C53.6261 19.2032 54.1194 20.9566 54.1194 22.6348Z" fill="#A2ABB4"/>
<path d="M33.95 22.635C33.95 26.614 30.8612 29.8532 27.0535 29.8532C25.2967 29.8491 23.6114 29.1571 22.3587 27.9254L22.0068 27.5614L16.975 22.3132L11.7538 27.7269C11.3733 28.1261 10.9473 28.4794 10.4846 28.7795C9.4152 29.4665 8.17057 29.8309 6.89953 29.8292C3.08889 29.8292 6.97566e-05 26.605 6.97566e-05 22.6109C-0.00781505 20.8001 0.652982 19.0501 1.85577 17.6965L2.20164 17.3356L7.21232 12.1143L15.4502 3.56371C15.6395 3.36498 15.8672 3.20676 16.1195 3.09866C16.3718 2.99056 16.6434 2.93481 16.9179 2.93481C17.1924 2.93481 17.464 2.99056 17.7163 3.09866C17.9686 3.20676 18.1963 3.36498 18.3856 3.56371L26.7197 12.2166L32.4763 18.1927C33.4568 19.2033 33.95 20.9567 33.95 22.635Z" fill="white"/>
</svg>
