<svg width="22" height="21" viewBox="0 0 22 21" fill="none" xmlns="http://www.w3.org/2000/svg">
<g clip-path="url(#clip0_483_4036)">
<g clip-path="url(#clip1_483_4036)">
<path d="M19.633 5.17743C18.9929 5.46158 18.3051 5.65294 17.5831 5.7392C18.3203 5.29776 18.8864 4.59827 19.1524 3.76468C18.4631 4.1735 17.6991 4.47069 16.8858 4.63088C16.2356 3.9372 15.307 3.50372 14.2806 3.50372C11.9763 3.50372 10.283 5.65366 10.8035 7.88553C7.83805 7.73689 5.20826 6.31619 3.44757 4.15683C2.5125 5.76095 2.96264 7.8594 4.55154 8.92206C3.9673 8.90319 3.4164 8.74301 2.93582 8.47553C2.89668 10.1289 4.08183 11.6758 5.7983 12.0201C5.29597 12.1564 4.7458 12.1883 4.18621 12.081C4.63997 13.4988 5.95777 14.5303 7.52058 14.5593C6.02011 15.7357 4.12967 16.2613 2.23633 16.0381C3.8158 17.0507 5.69247 17.6414 7.70759 17.6414C14.3343 17.6414 18.0782 12.0448 17.852 7.02508C18.5493 6.52133 19.1546 5.89287 19.633 5.17743Z" fill="white"/>
</g>
</g>
<defs>
<clipPath id="clip0_483_4036">
<rect width="20.1967" height="20.1967" fill="white" transform="translate(0.835938 0.474426)"/>
</clipPath>
<clipPath id="clip1_483_4036">
<rect width="20.1967" height="20.1967" fill="white" transform="translate(0.835938 0.474426)"/>
</clipPath>
</defs>
</svg>
