<svg width="411" height="508" viewBox="0 0 411 508" fill="none" xmlns="http://www.w3.org/2000/svg">
<path d="M253.564 507.127C186.315 507.127 121.82 480.412 74.2674 432.86C26.715 385.307 0.000366211 320.813 0.000366211 253.563C0.000366211 186.314 26.715 121.819 74.2674 74.2668C121.82 26.7144 186.315 -0.000233986 253.564 -0.000244141L253.564 253.563L253.564 507.127Z" fill="#FFCDA8"/>
<path d="M506.495 502.069C440.587 502.069 377.379 475.887 330.776 429.283C284.172 382.68 257.99 319.472 257.99 253.564C257.99 187.656 284.172 124.448 330.776 77.8444C377.379 31.2407 440.587 5.05897 506.495 5.05896L506.495 253.564L506.495 502.069Z" fill="#F46036"/>
</svg>
